<svg width="23" height="23" viewBox="0 0 23 23" fill="none" xmlns="http://www.w3.org/2000/svg">
<path d="M17.125 0.25H5.875C2.77 0.25 0.25 2.75875 0.25 5.8525V13.705C0.25 16.7987 2.77 19.3075 5.875 19.3075H7.5625C7.86625 19.3075 8.27125 19.51 8.4625 19.7575L10.15 21.9963C10.8925 22.9862 12.1075 22.9862 12.85 21.9963L14.5375 19.7575C14.7512 19.4762 15.0887 19.3075 15.4375 19.3075H17.125C20.23 19.3075 22.75 16.7987 22.75 13.705V5.8525C22.75 2.75875 20.23 0.25 17.125 0.25ZM7 11.5C6.37 11.5 5.875 10.9937 5.875 10.375C5.875 9.75625 6.38125 9.25 7 9.25C7.61875 9.25 8.125 9.75625 8.125 10.375C8.125 10.9937 7.63 11.5 7 11.5ZM11.5 11.5C10.87 11.5 10.375 10.9937 10.375 10.375C10.375 9.75625 10.8813 9.25 11.5 9.25C12.1187 9.25 12.625 9.75625 12.625 10.375C12.625 10.9937 12.13 11.5 11.5 11.5ZM16 11.5C15.37 11.5 14.875 10.9937 14.875 10.375C14.875 9.75625 15.3813 9.25 16 9.25C16.6187 9.25 17.125 9.75625 17.125 10.375C17.125 10.9937 16.63 11.5 16 11.5Z" fill="white"/>
</svg>
