<svg width="23" height="20" viewBox="0 0 23 20" fill="none" xmlns="http://www.w3.org/2000/svg">
<path d="M21.625 2.90625H13.75C13.2887 2.90625 12.9062 2.52375 12.9062 2.0625C12.9062 1.60125 13.2887 1.21875 13.75 1.21875H21.625C22.0863 1.21875 22.4688 1.60125 22.4688 2.0625C22.4688 2.52375 22.0863 2.90625 21.625 2.90625ZM21.625 8.53125H13.75C13.2887 8.53125 12.9062 8.14875 12.9062 7.6875C12.9062 7.22625 13.2887 6.84375 13.75 6.84375H21.625C22.0863 6.84375 22.4688 7.22625 22.4688 7.6875C22.4688 8.14875 22.0863 8.53125 21.625 8.53125ZM21.625 14.1562H1.375C0.91375 14.1562 0.53125 13.7738 0.53125 13.3125C0.53125 12.8512 0.91375 12.4688 1.375 12.4688H21.625C22.0863 12.4688 22.4688 12.8512 22.4688 13.3125C22.4688 13.7738 22.0863 14.1562 21.625 14.1562ZM21.625 19.7812H1.375C0.91375 19.7812 0.53125 19.3988 0.53125 18.9375C0.53125 18.4762 0.91375 18.0938 1.375 18.0938H21.625C22.0863 18.0938 22.4688 18.4762 22.4688 18.9375C22.4688 19.3988 22.0863 19.7812 21.625 19.7812ZM6.91 0.9375H3.715C2.14 0.9375 1.375 1.7025 1.375 3.2775V6.48375C1.375 8.05875 2.14 8.82375 3.715 8.82375H6.92125C8.49625 8.82375 9.26125 8.05875 9.26125 6.48375V3.2775C9.25 1.7025 8.485 0.9375 6.91 0.9375Z" fill="white"/>
</svg>
