<svg width="44" height="44" viewBox="0 0 44 44" fill="none" xmlns="http://www.w3.org/2000/svg">
<rect width="44" height="44" rx="12" fill="#F14336"/>
<path d="M22.0001 26.7143C23.8937 26.7143 25.4287 25.1793 25.4287 23.2857C25.4287 21.3922 23.8937 19.8572 22.0001 19.8572C20.1066 19.8572 18.5715 21.3922 18.5715 23.2857C18.5715 25.1793 20.1066 26.7143 22.0001 26.7143Z" fill="white"/>
<path d="M31.4286 16.4286H28.2679C28.1071 16.4286 27.9079 16.3246 27.7525 16.1607L26.3629 13.9675C26.3409 13.9327 26.3163 13.8996 26.2895 13.8684C25.8095 13.3086 25.1607 13 24.4643 13H19.5357C18.8393 13 18.1905 13.3086 17.7105 13.8684C17.6837 13.8996 17.6591 13.9327 17.6371 13.9675L16.2475 16.1639C16.1286 16.2936 15.9614 16.4318 15.7857 16.4318V16.0032C15.7857 15.7759 15.6954 15.5579 15.5347 15.3971C15.3739 15.2364 15.1559 15.1461 14.9286 15.1461H13.6429C13.4155 15.1461 13.1975 15.2364 13.0368 15.3971C12.876 15.5579 12.7857 15.7759 12.7857 16.0032V16.4318H12.5714C11.8897 16.4325 11.236 16.7036 10.7539 17.1857C10.2719 17.6678 10.0007 18.3214 10 19.0032V29.2857C10.0007 29.9675 10.2719 30.6211 10.7539 31.1032C11.236 31.5853 11.8897 31.8564 12.5714 31.8571H31.4286C32.1103 31.8564 32.764 31.5853 33.2461 31.1032C33.7281 30.6211 33.9993 29.9675 34 29.2857V19C33.9993 18.3182 33.7281 17.6646 33.2461 17.1825C32.764 16.7004 32.1103 16.4293 31.4286 16.4286ZM22 28.4286C20.9828 28.4286 19.9885 28.1269 19.1428 27.5618C18.297 26.9967 17.6379 26.1935 17.2486 25.2538C16.8594 24.3141 16.7575 23.28 16.956 22.2824C17.1544 21.2848 17.6442 20.3684 18.3635 19.6492C19.0827 18.9299 19.9991 18.4401 20.9967 18.2417C21.9943 18.0432 23.0284 18.1451 23.9681 18.5343C24.9078 18.9236 25.711 19.5828 26.2761 20.4285C26.8412 21.2742 27.1429 22.2686 27.1429 23.2857C27.1413 24.6492 26.599 25.9564 25.6348 26.9205C24.6707 27.8847 23.3635 28.427 22 28.4286Z" fill="white"/>
</svg>
