<svg width="34" height="34" viewBox="0 0 34 34" fill="none" xmlns="http://www.w3.org/2000/svg">
<path d="M19.8886 2.77197H13.3746C11.9332 2.77197 10.7551 3.93618 10.7551 5.37759V6.68039C10.7551 8.1218 11.9193 9.28601 13.3607 9.28601H19.8886C21.33 9.28601 22.4942 8.1218 22.4942 6.68039V5.37759C22.5081 3.93618 21.33 2.77197 19.8886 2.77197Z" fill="black"/>
<path d="M23.894 6.6803C23.894 8.88398 22.0923 10.6857 19.8886 10.6857H13.3746C11.1709 10.6857 9.36911 8.88398 9.36911 6.6803C9.36911 5.90416 8.53753 5.41907 7.84455 5.77942C6.85186 6.30806 6.02172 7.09684 5.44308 8.06124C4.86444 9.02564 4.55911 10.1293 4.55982 11.254V24.2959C4.55982 27.7054 7.34561 30.4912 10.7551 30.4912H22.5081C25.9175 30.4912 28.7033 27.7054 28.7033 24.2959V11.254C28.7033 8.88398 27.3728 6.81889 25.4186 5.77942C24.7256 5.41907 23.894 5.90416 23.894 6.6803ZM17.1582 23.4921H11.0877C10.5195 23.4921 10.0482 23.0208 10.0482 22.4526C10.0482 21.8843 10.5195 21.4131 11.0877 21.4131H17.1582C17.7265 21.4131 18.1977 21.8843 18.1977 22.4526C18.1977 23.0208 17.7265 23.4921 17.1582 23.4921ZM20.7895 17.9482H11.0877C10.5195 17.9482 10.0482 17.477 10.0482 16.9087C10.0482 16.3405 10.5195 15.8692 11.0877 15.8692H20.7895C21.3577 15.8692 21.8289 16.3405 21.8289 16.9087C21.8289 17.477 21.3577 17.9482 20.7895 17.9482Z" fill="black"/>
</svg>
