<svg width="40" height="40" viewBox="0 0 40 40" fill="none" xmlns="http://www.w3.org/2000/svg">
<path d="M28.0309 0.833374H11.9692C4.99254 0.833374 0.833374 4.99254 0.833374 11.9692V28.0117C0.833374 35.0075 4.99254 39.1667 11.9692 39.1667H28.0117C34.9884 39.1667 39.1475 35.0075 39.1475 28.0309V11.9692C39.1667 4.99254 35.0075 0.833374 28.0309 0.833374ZM26.44 24.4084C26.9959 24.9642 26.9959 25.8842 26.44 26.44C26.1525 26.7275 25.7884 26.8617 25.4242 26.8617C25.06 26.8617 24.6959 26.7275 24.4084 26.44L20 22.0317L15.5917 26.44C15.3042 26.7275 14.94 26.8617 14.5759 26.8617C14.2117 26.8617 13.8475 26.7275 13.56 26.44C13.2927 26.1695 13.1428 25.8045 13.1428 25.4242C13.1428 25.0439 13.2927 24.6789 13.56 24.4084L17.9684 20L13.56 15.5917C13.2927 15.3212 13.1428 14.9562 13.1428 14.5759C13.1428 14.1955 13.2927 13.8306 13.56 13.56C14.1159 13.0042 15.0359 13.0042 15.5917 13.56L20 17.9684L24.4084 13.56C24.9642 13.0042 25.8842 13.0042 26.44 13.56C26.9959 14.1159 26.9959 15.0359 26.44 15.5917L22.0317 20L26.44 24.4084Z" fill="#F14336"/>
</svg>
