<svg width="29" height="31" viewBox="0 0 29 31" fill="none" xmlns="http://www.w3.org/2000/svg">
<path d="M19.375 5.16667H27.125C27.8383 5.16667 28.4167 5.74497 28.4167 6.45833C28.4167 7.17169 27.8383 7.75 27.125 7.75H25.6977L23.7527 25.2549C23.3892 28.5257 20.6248 31 17.3339 31H11.0827C7.79187 31 5.02729 28.5257 4.66387 25.2549L2.71888 7.75H1.29167C0.578305 7.75 0 7.17169 0 6.45833C0 5.74497 0.578305 5.16667 1.29167 5.16667H9.04167C9.04167 2.31319 11.3549 0 14.2083 0C17.0618 0 19.375 2.31319 19.375 5.16667ZM14.2083 2.58333C12.7816 2.58333 11.625 3.73994 11.625 5.16667H16.7917C16.7917 3.73994 15.6351 2.58333 14.2083 2.58333ZM10.3333 12.9167V23.25C10.3333 23.9633 10.9116 24.5417 11.625 24.5417C12.3384 24.5417 12.9167 23.9633 12.9167 23.25V12.9167C12.9167 12.2033 12.3384 11.625 11.625 11.625C10.9116 11.625 10.3333 12.2033 10.3333 12.9167ZM16.7917 11.625C16.0783 11.625 15.5 12.2033 15.5 12.9167V23.25C15.5 23.9633 16.0783 24.5417 16.7917 24.5417C17.505 24.5417 18.0833 23.9633 18.0833 23.25V12.9167C18.0833 12.2033 17.505 11.625 16.7917 11.625Z" fill="#212121"/>
</svg>
