<svg width="20" height="18" viewBox="0 0 20 18" fill="none" xmlns="http://www.w3.org/2000/svg">
<path d="M19.25 6.15005C16.94 2.52005 13.56 0.430054 10 0.430054C8.22 0.430054 6.49 0.950054 4.91 1.92005C3.33 2.90005 1.91 4.33005 0.75 6.15005C-0.25 7.72005 -0.25 10.2701 0.75 11.8401C3.06 15.4801 6.44 17.5601 10 17.5601C11.78 17.5601 13.51 17.0401 15.09 16.0701C16.67 15.0901 18.09 13.6601 19.25 11.8401C20.25 10.2801 20.25 7.72005 19.25 6.15005ZM10 13.0401C7.76 13.0401 5.96 11.2301 5.96 9.00005C5.96 6.77005 7.76 4.96005 10 4.96005C12.24 4.96005 14.04 6.77005 14.04 9.00005C14.04 11.2301 12.24 13.0401 10 13.0401Z" fill="white"/>
</svg>
