<svg width="20" height="20" viewBox="0 0 20 20" fill="none" xmlns="http://www.w3.org/2000/svg">
<path d="M19.5599 8.73788L18.2099 7.15788C17.9599 6.85788 17.7499 6.29788 17.7499 5.89788V4.19788C17.7499 3.13788 16.8799 2.26788 15.8199 2.26788H14.1199C13.7199 2.26788 13.1499 2.05788 12.8499 1.80788L11.2699 0.457881C10.5799 -0.132119 9.44988 -0.132119 8.75988 0.457881L7.15988 1.80788C6.85988 2.05788 6.29988 2.26788 5.89988 2.26788H4.16988C3.10988 2.26788 2.23988 3.13788 2.23988 4.19788V5.89788C2.23988 6.28788 2.03988 6.84788 1.78988 7.14788L0.439883 8.73788C-0.140117 9.43788 -0.140117 10.5579 0.439883 11.2379L1.78988 12.8279C2.03988 13.1179 2.23988 13.6879 2.23988 14.0779V15.7879C2.23988 16.8479 3.10988 17.7179 4.16988 17.7179H5.90988C6.29988 17.7179 6.86988 17.9279 7.16988 18.1779L8.74988 19.5279C9.43988 20.1179 10.5699 20.1179 11.2599 19.5279L12.8399 18.1779C13.1399 17.9279 13.6999 17.7179 14.0999 17.7179H15.7999C16.8599 17.7179 17.7299 16.8479 17.7299 15.7879V14.0879C17.7299 13.6879 17.9399 13.1279 18.1899 12.8279L19.5399 11.2479C20.1499 10.5679 20.1499 9.43788 19.5599 8.73788ZM9.24988 6.12788C9.24988 5.71788 9.58988 5.37788 9.99988 5.37788C10.4099 5.37788 10.7499 5.71788 10.7499 6.12788V10.9579C10.7499 11.3679 10.4099 11.7079 9.99988 11.7079C9.58988 11.7079 9.24988 11.3679 9.24988 10.9579V6.12788ZM9.99988 14.8679C9.44988 14.8679 8.99988 14.4179 8.99988 13.8679C8.99988 13.3179 9.43988 12.8679 9.99988 12.8679C10.5499 12.8679 10.9999 13.3179 10.9999 13.8679C10.9999 14.4179 10.5599 14.8679 9.99988 14.8679Z" fill="white"/>
</svg>
