<svg width="58" height="43" viewBox="0 0 58 43" fill="none" xmlns="http://www.w3.org/2000/svg">
<rect width="58" height="35" rx="7" fill="black"/>
<path d="M28.1508 41.6342C28.542 42.2635 29.458 42.2635 29.8492 41.6342L34.1121 34.778C34.5263 34.1119 34.0473 33.25 33.2629 33.25H24.7371C23.9527 33.25 23.4737 34.1119 23.8879 34.778L28.1508 41.6342Z" fill="black"/>
<path d="M18.7385 16.097C17.7294 16.097 16.8519 16.5504 16.3839 17.3109C16.5009 15.5851 17.7001 14.3566 19.3966 14.3566C20.1864 14.3566 20.9176 14.6784 21.4441 15.1317L22.3509 13.6839C21.5319 12.9965 20.4496 12.6455 19.3528 12.6455C16.7788 12.6455 14.5119 14.5175 14.5119 18.3492C14.5119 21.1865 16.1353 23.117 18.446 23.117C20.7129 23.117 22.3363 21.6545 22.3363 19.607C22.3363 17.5595 20.8299 16.097 18.7385 16.097ZM18.5045 21.3912C17.393 21.3912 16.6033 20.6015 16.6033 19.5046C16.6033 18.4224 17.393 17.6326 18.5045 17.6326C19.6014 17.6326 20.3911 18.4224 20.3765 19.5046C20.3765 20.6015 19.6014 21.3912 18.5045 21.3912ZM24.7736 23.117C25.4317 23.117 25.9143 22.6344 25.9143 21.9909C25.9143 21.3474 25.4317 20.8647 24.7736 20.8647C24.1301 20.8647 23.6328 21.3474 23.6328 21.9909C23.6328 22.6344 24.1301 23.117 24.7736 23.117ZM31.5639 16.097C30.5548 16.097 29.6773 16.5504 29.2093 17.3109C29.3263 15.5851 30.5256 14.3566 32.2221 14.3566C33.0118 14.3566 33.7431 14.6784 34.2696 15.1317L35.1763 13.6839C34.3573 12.9965 33.2751 12.6455 32.1782 12.6455C29.6042 12.6455 27.3373 14.5175 27.3373 18.3492C27.3373 21.1865 28.9607 23.117 31.2714 23.117C33.5383 23.117 35.1617 21.6545 35.1617 19.607C35.1617 17.5595 33.6553 16.097 31.5639 16.097ZM31.3299 21.3912C30.2184 21.3912 29.4287 20.6015 29.4287 19.5046C29.4287 18.4224 30.2184 17.6326 31.3299 17.6326C32.4268 17.6326 33.2166 18.4224 33.2019 19.5046C33.2019 20.6015 32.4268 21.3912 31.3299 21.3912ZM38.6016 17.7935C40.0349 17.7935 40.9855 16.7405 40.9855 15.2195C40.9855 13.6985 40.0349 12.6455 38.6016 12.6455C37.1538 12.6455 36.2031 13.6985 36.2031 15.2195C36.2031 16.7405 37.1538 17.7935 38.6016 17.7935ZM37.4024 23H38.8941L45.7387 12.7625H44.2469L37.4024 23ZM38.6016 16.5357C37.9874 16.5357 37.6071 16.0385 37.6071 15.2195C37.6071 14.4005 37.9874 13.9032 38.6016 13.9032C39.2013 13.9032 39.5669 14.4005 39.5669 15.2195C39.5669 16.0385 39.2013 16.5357 38.6016 16.5357ZM44.5833 23.117C46.0165 23.117 46.9671 22.064 46.9671 20.543C46.9671 19.022 46.0165 17.969 44.5833 17.969C43.15 17.969 42.1848 19.022 42.1848 20.543C42.1848 22.064 43.15 23.117 44.5833 23.117ZM44.5833 21.8592C43.969 21.8592 43.6034 21.362 43.6034 20.543C43.6034 19.724 43.969 19.2267 44.5833 19.2267C45.1975 19.2267 45.5631 19.724 45.5631 20.543C45.5631 21.362 45.1975 21.8592 44.5833 21.8592Z" fill="white"/>
</svg>
