<svg width="31" height="31" viewBox="0 0 31 31" fill="none" xmlns="http://www.w3.org/2000/svg">
<path d="M20.912 2.58325H10.0878C5.38617 2.58325 2.58325 5.38617 2.58325 10.0878V20.8991C2.58325 25.6137 5.38617 28.4166 10.0878 28.4166H20.8991C25.6008 28.4166 28.4037 25.6137 28.4037 20.912V10.0878C28.4166 5.38617 25.6137 2.58325 20.912 2.58325ZM20.3437 20.3437H10.6562C10.1266 20.3437 9.68742 19.9045 9.68742 19.3749C9.68742 18.8453 10.1266 18.4062 10.6562 18.4062H20.3437C20.8733 18.4062 21.3124 18.8453 21.3124 19.3749C21.3124 19.9045 20.8733 20.3437 20.3437 20.3437ZM20.3437 12.5937H10.6562C10.1266 12.5937 9.68742 12.1545 9.68742 11.6249C9.68742 11.0953 10.1266 10.6562 10.6562 10.6562H20.3437C20.8733 10.6562 21.3124 11.0953 21.3124 11.6249C21.3124 12.1545 20.8733 12.5937 20.3437 12.5937Z" fill="black"/>
</svg>
