<svg width="27" height="27" viewBox="0 0 27 27" fill="none" xmlns="http://www.w3.org/2000/svg">
<path d="M22.545 7.67472L16.065 3.14097C14.2988 1.90347 11.5875 1.97097 9.88877 3.28722L4.25252 7.68597C3.12752 8.56347 2.23877 10.3635 2.23877 11.781V19.5435C2.23877 22.4122 4.56752 24.7522 7.43627 24.7522H19.5638C22.4325 24.7522 24.7613 22.4235 24.7613 19.5547V11.9272C24.7613 10.4085 23.7825 8.54097 22.545 7.67472ZM14.3438 20.2522C14.3438 20.7135 13.9613 21.096 13.5 21.096C13.0388 21.096 12.6563 20.7135 12.6563 20.2522V16.8772C12.6563 16.416 13.0388 16.0335 13.5 16.0335C13.9613 16.0335 14.3438 16.416 14.3438 16.8772V20.2522Z" fill="white"/>
</svg>
