<svg width="25" height="22" viewBox="0 0 25 22" fill="none" xmlns="http://www.w3.org/2000/svg">
<path d="M8.05375 1.74485V16.3698M16.12 4.69235V19.7448M1 5.99735V16.9436C1 19.0811 2.51875 19.9586 4.36375 18.9011L7.0075 17.3936C7.58125 17.0673 8.5375 17.0336 9.13375 17.3373L15.04 20.2961C15.6363 20.5886 16.5925 20.5661 17.1662 20.2398L22.0375 17.4498C22.6563 17.0898 23.1737 16.2123 23.1737 15.4923V4.5461C23.1737 2.4086 21.655 1.5311 19.81 2.5886L17.1662 4.0961C16.5925 4.42235 15.6363 4.4561 15.04 4.15235L9.13375 1.20485C8.5375 0.912346 7.58125 0.934845 7.0075 1.2611L2.13625 4.0511C1.50625 4.4111 1 5.2886 1 5.99735Z" stroke="#470C0C" stroke-width="1.6875" stroke-linecap="round" stroke-linejoin="round"/>
</svg>
