<svg width="34" height="35" viewBox="0 0 34 35" fill="none" xmlns="http://www.w3.org/2000/svg">
<path d="M27.4267 6.70854C23.3243 2.61994 16.6717 2.61994 12.5969 6.70854C9.72798 9.54977 8.86868 13.6384 9.97745 17.2419L3.46341 23.7559C3.00605 24.2271 2.68727 25.1557 2.78429 25.821L3.20008 28.8424C3.35254 29.8403 4.28113 30.7827 5.27903 30.9213L8.30043 31.3371C8.9657 31.4342 9.89429 31.1292 10.3655 30.6441L11.502 29.5077C11.7792 29.2443 11.7792 28.8008 11.502 28.5236L8.81324 25.8349C8.61993 25.6392 8.51151 25.3753 8.51151 25.1003C8.51151 24.8253 8.61993 24.5613 8.81324 24.3657C9.21517 23.9638 9.88043 23.9638 10.2824 24.3657L12.985 27.0684C13.2483 27.3317 13.6918 27.3317 13.9552 27.0684L16.8934 24.144C20.4831 25.2666 24.5717 24.3934 27.4267 21.5522C31.5153 17.4636 31.5153 10.7971 27.4267 6.70854ZM20.095 17.4913C19.176 17.4913 18.2947 17.1263 17.6449 16.4765C16.9951 15.8267 16.6301 14.9454 16.6301 14.0264C16.6301 13.1075 16.9951 12.2262 17.6449 11.5764C18.2947 10.9266 19.176 10.5615 20.095 10.5615C21.0139 10.5615 21.8953 10.9266 22.5451 11.5764C23.1949 12.2262 23.5599 13.1075 23.5599 14.0264C23.5599 14.9454 23.1949 15.8267 22.5451 16.4765C21.8953 17.1263 21.0139 17.4913 20.095 17.4913Z" fill="black"/>
</svg>
