<svg width="18" height="22" viewBox="0 0 18 22" fill="none" xmlns="http://www.w3.org/2000/svg">
<path d="M17.6211 7.45C16.5711 2.83 12.5411 0.75 9.00107 0.75H8.99107C5.46107 0.75 1.42107 2.82 0.371072 7.44C-0.798928 12.6 2.36107 16.97 5.22107 19.72C6.23479 20.7012 7.59027 21.2498 9.00107 21.25C10.3611 21.25 11.7211 20.74 12.7711 19.72C15.6311 16.97 18.7911 12.61 17.6211 7.45ZM9.00107 12.46C8.58741 12.46 8.1778 12.3785 7.79562 12.2202C7.41344 12.0619 7.06619 11.8299 6.77369 11.5374C6.48118 11.2449 6.24915 10.8976 6.09085 10.5155C5.93255 10.1333 5.85107 9.72366 5.85107 9.31C5.85107 8.89634 5.93255 8.48672 6.09085 8.10455C6.24915 7.72237 6.48118 7.37512 6.77369 7.08261C7.06619 6.79011 7.41344 6.55808 7.79562 6.39978C8.1778 6.24148 8.58741 6.16 9.00107 6.16C9.8365 6.16 10.6377 6.49187 11.2285 7.08261C11.8192 7.67335 12.1511 8.47457 12.1511 9.31C12.1511 10.1454 11.8192 10.9466 11.2285 11.5374C10.6377 12.1281 9.8365 12.46 9.00107 12.46Z" fill="white"/>
</svg>
