<svg width="23" height="20" viewBox="0 0 23 20" fill="none" xmlns="http://www.w3.org/2000/svg">
<path d="M6.58367 1.01627C6.78392 0.906019 6.99992 1.07477 6.99992 1.30539V16.5559C6.99992 16.8068 6.8278 17.0194 6.60617 17.1364C6.59864 17.1401 6.59114 17.1438 6.58367 17.1476L3.93992 18.6551C2.09492 19.7126 0.576172 18.8351 0.576172 16.6976V5.75252C0.576172 5.04377 1.08242 4.16627 1.71242 3.80627L6.58367 1.01627ZM14.5622 3.86589C14.6559 3.91234 14.7348 3.98401 14.7901 4.07284C14.8453 4.16168 14.8747 4.26416 14.8749 4.36877V19.1659C14.8748 19.261 14.8506 19.3546 14.8045 19.4378C14.7585 19.5211 14.692 19.5912 14.6114 19.6418C14.5309 19.6924 14.4388 19.7217 14.3438 19.727C14.2488 19.7323 14.154 19.7134 14.0683 19.6721L9.28705 17.3693C9.19175 17.3234 9.11132 17.2515 9.05501 17.162C8.99869 17.0724 8.96877 16.9688 8.96867 16.863V2.00289C8.96848 1.90709 8.99277 1.81282 9.03922 1.72903C9.08568 1.64525 9.15276 1.57471 9.23412 1.52412C9.31547 1.47352 9.4084 1.44455 9.5041 1.43993C9.59979 1.43532 9.69508 1.45523 9.78092 1.49777L14.5622 3.86589ZM22.7499 4.30127V15.2475C22.7499 15.9563 22.2437 16.8338 21.6137 17.1938L17.6863 19.4449C17.6007 19.494 17.5037 19.5198 17.4051 19.5196C17.3064 19.5194 17.2095 19.4933 17.1242 19.4438C17.0388 19.3943 16.9679 19.3233 16.9187 19.2378C16.8695 19.1523 16.8436 19.0553 16.8437 18.9566V4.12127C16.8437 4.02212 16.8699 3.92474 16.9197 3.839C16.9695 3.75326 17.0411 3.6822 17.1272 3.63302L19.3862 2.34377C21.2312 1.28627 22.7499 2.16377 22.7499 4.30127Z" fill="#F14336"/>
</svg>
