<svg width="63" height="73" viewBox="0 0 63 73" fill="none" xmlns="http://www.w3.org/2000/svg">
<path d="M15.9571 47.0683C24.77 55.4376 38.6989 55.078 47.0683 46.2652C55.4376 37.4523 55.0781 23.5234 46.2652 15.154C37.4523 6.78468 23.5234 7.14425 15.154 15.9571C6.78469 24.77 7.14426 38.6989 15.9571 47.0683Z" stroke="#36393B" stroke-width="5.50156" stroke-linecap="round" stroke-linejoin="round"/>
<path d="M32.1147 70L31.678 53.0833" stroke="#36393B" stroke-width="5.50156" stroke-linecap="round" stroke-linejoin="round"/>
<path d="M20.8571 41.5515C16.1435 41.8114 12.3372 40.3444 9.36166 36.6668C5.16711 35.5216 2.47207 33.3552 0.514404 30.8562C0.67744 28.0777 1.40089 25.4022 2.42386 22.7991C2.49787 22.6108 2.82095 22.4686 3.05482 22.4086C3.31755 22.3412 3.61048 22.3909 3.89028 22.3909C21.9973 22.3907 40.1044 22.3994 58.2114 22.3674C59.2032 22.3656 59.7529 22.6062 59.991 23.5999C60.5639 25.991 61.1906 28.3693 61.8172 30.8379C60.3751 33.3749 57.4409 36.1563 51.5084 37.9119C47.798 41.8361 43.0088 42.513 38.0207 40.7829C33.3271 39.155 28.7531 39.0194 24.102 40.7888C23.1054 41.168 22.0142 41.2982 20.8571 41.5515ZM26.1506 34.8739C27.774 32.4502 27.5 30.2133 25.341 28.2653C22.166 25.4006 16.2694 25.5852 13.3024 28.6421C11.3379 30.6662 11.348 33.3418 13.3277 35.3644C16.5892 38.6966 22.6762 38.5246 26.1506 34.8739ZM49.8295 33.7918C50.6003 32.0336 50.2716 30.4254 49.0802 28.995C45.9784 25.271 39.0412 25.308 35.9785 29.0422C34.5864 30.7396 34.5096 32.9196 35.7797 34.6855C38.9478 39.09 47.0356 38.6707 49.8295 33.7918Z" fill="#F14336"/>
</svg>
