<svg width="50" height="50" viewBox="0 0 53 53" fill="none" xmlns="http://www.w3.org/2000/svg">
<path d="M37.4986 0.249969H15.5011C5.94613 0.249969 0.249878 5.94622 0.249878 15.5012V37.4725C0.249878 47.0537 5.94613 52.75 15.5011 52.75H37.4724C47.0274 52.75 52.7236 47.0537 52.7236 37.4987V15.5012C52.7499 5.94622 47.0536 0.249969 37.4986 0.249969ZM39.6249 40.2812H13.3749C12.2986 40.2812 11.4061 39.3887 11.4061 38.3125C11.4061 37.2362 12.2986 36.3437 13.3749 36.3437H39.6249C40.7011 36.3437 41.5936 37.2362 41.5936 38.3125C41.5936 39.3887 40.7011 40.2812 39.6249 40.2812ZM39.6249 28.4687H13.3749C12.2986 28.4687 11.4061 27.5762 11.4061 26.5C11.4061 25.4237 12.2986 24.5312 13.3749 24.5312H39.6249C40.7011 24.5312 41.5936 25.4237 41.5936 26.5C41.5936 27.5762 40.7011 28.4687 39.6249 28.4687ZM39.6249 16.6562H13.3749C12.2986 16.6562 11.4061 15.7637 11.4061 14.6875C11.4061 13.6112 12.2986 12.7187 13.3749 12.7187H39.6249C40.7011 12.7187 41.5936 13.6112 41.5936 14.6875C41.5936 15.7637 40.7011 16.6562 39.6249 16.6562Z" fill="#F14336"/>
</svg>
