<svg width="39" height="39" viewBox="0 0 39 39" fill="none" xmlns="http://www.w3.org/2000/svg">
<path d="M19.5325 4.72876C14.1537 4.72876 9.78246 9.10001 9.78246 14.4788V19.175C9.78246 20.1663 9.35996 21.6775 8.85621 22.5225L6.98746 25.6263C5.83371 27.5438 6.62996 29.6725 8.74246 30.3875C15.7462 32.7275 23.3025 32.7275 30.3062 30.3875C32.2725 29.7375 33.1337 27.4138 32.0612 25.6263L30.1925 22.5225C29.705 21.6775 29.2825 20.1663 29.2825 19.175V14.4788C29.2825 9.11626 24.895 4.72876 19.5325 4.72876Z" stroke="black" stroke-width="2.4375" stroke-miterlimit="10" stroke-linecap="round"/>
<path d="M22.5389 5.2C20.5738 4.64033 18.4915 4.64033 16.5264 5.2C16.9976 3.9975 18.1676 3.1525 19.5326 3.1525C20.8976 3.1525 22.0676 3.9975 22.5389 5.2Z" stroke="black" stroke-width="2.4375" stroke-miterlimit="10" stroke-linecap="round" stroke-linejoin="round"/>
<path d="M24.4075 30.9725C24.4075 33.6538 22.2137 35.8475 19.5325 35.8475C18.2 35.8475 16.965 35.295 16.0875 34.4175C15.1745 33.5031 14.6604 32.2646 14.6575 30.9725" stroke="black" stroke-width="2.4375" stroke-miterlimit="10"/>
<circle cx="31" cy="10" r="7" fill="#F14336" stroke="#F1F0F7" stroke-width="2"/>
</svg>
