<svg width="21" height="21" viewBox="0 0 21 21" fill="none" xmlns="http://www.w3.org/2000/svg">
<path d="M16.5301 5.77C16.4605 5.76 16.3897 5.76 16.3201 5.77C15.5732 5.74556 14.8653 5.43119 14.3463 4.89355C13.8273 4.3559 13.5381 3.63726 13.5401 2.89C13.5401 1.3 14.8301 0 16.4301 0C18.0201 0 19.3201 1.29 19.3201 2.89C19.318 3.63773 19.0261 4.35553 18.5058 4.89258C17.9855 5.42963 17.2774 5.74413 16.5301 5.77ZM19.7921 12.7C18.6721 13.45 17.1021 13.73 15.6521 13.54C16.0321 12.72 16.2321 11.81 16.2421 10.85C16.2421 9.85 16.0221 8.9 15.6021 8.07C17.0821 7.87 18.6521 8.15 19.7821 8.9C21.3621 9.94 21.3621 11.65 19.7921 12.7ZM5.44009 5.77C5.51009 5.76 5.58009 5.76 5.65009 5.77C6.39696 5.74556 7.10493 5.43119 7.62391 4.89355C8.14289 4.3559 8.43205 3.63726 8.43009 2.89C8.43009 2.51114 8.35547 2.13598 8.21049 1.78596C8.0655 1.43593 7.85299 1.11789 7.5851 0.849997C7.3172 0.5821 6.99916 0.369592 6.64914 0.224607C6.29911 0.0796226 5.92396 0.00499988 5.54509 0.00499988C5.16623 0.00499988 4.79108 0.0796226 4.44105 0.224607C4.09103 0.369592 3.77299 0.5821 3.50509 0.849997C3.23719 1.11789 3.02469 1.43593 2.8797 1.78596C2.73472 2.13598 2.66009 2.51114 2.66009 2.89C2.66009 4.45 3.89009 5.72 5.44009 5.77ZM5.55109 10.85C5.55109 11.82 5.76109 12.74 6.14109 13.57C4.73109 13.72 3.26109 13.42 2.18109 12.71C0.601094 11.66 0.601094 9.95 2.18109 8.9C3.25109 8.18 4.76109 7.89 6.18109 8.05C5.77109 8.89 5.55109 9.84 5.55109 10.85ZM11.1201 13.87C11.0337 13.86 10.9465 13.86 10.8601 13.87C9.97094 13.8401 9.1283 13.4655 8.51052 12.8253C7.89274 12.1851 7.54829 11.3297 7.55009 10.44C7.56009 8.54 9.09009 7 11.0001 7C12.9001 7 14.4401 8.54 14.4401 10.44C14.4395 11.3306 14.093 12.1862 13.4735 12.8262C12.8541 13.4662 12.0103 13.8404 11.1201 13.87ZM7.87009 15.94C6.36009 16.95 6.36009 18.61 7.87009 19.61C9.59009 20.76 12.4101 20.76 14.1301 19.61C15.6401 18.6 15.6401 16.94 14.1301 15.94C12.4201 14.79 9.60009 14.79 7.87009 15.94Z" fill="white"/>
</svg>
