<svg width="24" height="24" viewBox="0 0 24 24" fill="none" xmlns="http://www.w3.org/2000/svg">
<path d="M15 22.748C14.8672 22.7473 14.7369 22.7114 14.6225 22.6439C14.508 22.5765 14.4135 22.48 14.3484 22.3641C14.2834 22.2483 14.2502 22.1173 14.2523 21.9845C14.2543 21.8517 14.2915 21.7218 14.36 21.608L15.41 19.858C15.4606 19.7733 15.5273 19.6994 15.6064 19.6405C15.6856 19.5816 15.7755 19.5388 15.8712 19.5147C15.9668 19.4905 16.0663 19.4855 16.1639 19.4998C16.2615 19.5141 16.3553 19.5474 16.44 19.598C16.5247 19.6486 16.5986 19.7153 16.6575 19.7944C16.7164 19.8736 16.7592 19.9635 16.7833 20.0592C16.8075 20.1548 16.8125 20.2543 16.7982 20.3519C16.7839 20.4495 16.7506 20.5433 16.7 20.628L16.43 21.078C19.19 20.428 21.26 17.948 21.26 14.988C21.26 14.578 21.6 14.238 22.01 14.238C22.42 14.238 22.76 14.578 22.76 14.988C22.75 19.268 19.27 22.748 15 22.748ZM2 9.75C1.59 9.75 1.25 9.41 1.25 9C1.25 4.73 4.73 1.25 9 1.25C9.13283 1.25074 9.2631 1.28664 9.37754 1.35407C9.49199 1.42149 9.58654 1.51803 9.65156 1.63386C9.71659 1.74969 9.74978 1.88067 9.74775 2.01349C9.74571 2.14631 9.70854 2.27621 9.64 2.39L8.59 4.14C8.38 4.49 7.92 4.61 7.56 4.39C7.47561 4.33911 7.40213 4.272 7.34382 4.19255C7.28551 4.1131 7.24352 4.02289 7.22027 3.92712C7.19703 3.83135 7.19299 3.73192 7.20839 3.63458C7.22379 3.53724 7.25833 3.44392 7.31 3.36L7.58 2.91C6.20652 3.23246 4.9822 4.00934 4.10552 5.11472C3.22884 6.2201 2.75119 7.58917 2.75 9C2.75 9.41 2.41 9.75 2 9.75ZM14.8 12.63V15.57C14.8 18.02 13.82 19 11.37 19H8.43C5.98 19 5 18.02 5 15.57V12.63C5 10.18 5.98 9.2 8.43 9.2H11.37C13.82 9.2 14.8 10.18 14.8 12.63Z" fill="white"/>
<path d="M15.57 5H12.63C10.22 5 9.23996 5.96 9.20996 8.32H11.37C14.31 8.32 15.67 9.69 15.67 12.62V14.78C18.04 14.75 18.99 13.77 18.99 11.36V8.43C19 5.98 18.02 5 15.57 5Z" fill="white"/>
</svg>
