<svg width="35" height="35" viewBox="0 0 35 35" fill="none" xmlns="http://www.w3.org/2000/svg">
<path d="M33.2773 0.99422C32.4228 0.117188 31.1581 -0.209549 29.9789 0.134385L2.48052 8.13085C1.23635 8.47651 0.354486 9.46876 0.11693 10.7293C-0.125753 12.0122 0.721928 13.6407 1.82938 14.3217L10.4275 19.6062C11.3094 20.1479 12.4476 20.0121 13.1774 19.276L23.0231 9.36902C23.5187 8.85312 24.3391 8.85312 24.8347 9.36902C25.3303 9.86772 25.3303 10.676 24.8347 11.1919L14.9718 21.1006C14.2404 21.8349 14.1037 22.9785 14.642 23.8658L19.8956 32.5502C20.5108 33.582 21.5704 34.1667 22.7326 34.1667C22.8693 34.1667 23.0231 34.1667 23.1598 34.1495C24.4929 33.9775 25.5525 33.0661 25.9455 31.7763L34.0976 4.31318C34.4565 3.14381 34.1318 1.87125 33.2773 0.99422Z" fill="#F14336"/>
</svg>
