<svg width="24" height="24" viewBox="0 0 24 24" fill="none" xmlns="http://www.w3.org/2000/svg">
<path d="M6 8C4.34315 8 3 6.65685 3 5C3 3.34315 4.34315 2 6 2C7.65685 2 9 3.34315 9 5C9 6.65685 7.65685 8 6 8Z" stroke="white" stroke-width="2" stroke-linecap="round" stroke-linejoin="round"/>
<path d="M18 15C16.3431 15 15 13.6569 15 12C15 10.3431 16.3431 9 18 9C19.6569 9 21 10.3431 21 12C21 13.6569 19.6569 15 18 15Z" stroke="white" stroke-width="2" stroke-linecap="round" stroke-linejoin="round"/>
<path d="M6 22C4.34315 22 3 20.6569 3 19C3 17.3431 4.34315 16 6 16C7.65685 16 9 17.3431 9 19C9 20.6569 7.65685 22 6 22Z" stroke="white" stroke-width="2" stroke-linecap="round" stroke-linejoin="round"/>
<path d="M15.4099 13.51L8.57991 17.49" stroke="white" stroke-width="2" stroke-linecap="round" stroke-linejoin="round"/>
<path d="M8.58991 6.51001L15.4099 10.49" stroke="white" stroke-width="2" stroke-linecap="round" stroke-linejoin="round"/>
<circle cx="6" cy="5" r="3" fill="white"/>
<circle cx="18" cy="12" r="3" fill="white"/>
<circle cx="6" cy="19" r="3" fill="white"/>
</svg>
