<svg width="59" height="62" viewBox="0 0 59 62" fill="none" xmlns="http://www.w3.org/2000/svg">
<path d="M5.7144 36.6088L7.576 28.3629C7.84383 27.231 7.41364 25.5973 6.65711 24.7012L2.07838 19.5004C-0.845825 16.1728 0.368935 13.0789 4.80028 12.6165L12.3085 11.8653C13.5535 11.7408 15.0514 10.7144 15.621 9.55234L18.6146 3.47961C20.9744 -1.31029 24.4229 -1.1218 26.2398 3.89807L28.7888 10.9025C29.2397 12.1721 30.7339 13.3944 32.0676 13.5849L39.4382 14.6957C44.7015 15.5029 45.5864 18.825 41.3589 22.0869L35.9996 26.2242C34.9979 27.0675 34.2887 28.739 34.4132 29.9841L35.1644 37.4922C35.606 41.9066 32.8141 43.7102 28.9561 41.5239L22.9513 38.0663C21.9401 37.4815 20.2366 37.4042 19.1802 37.891L11.4665 41.3493C7.28802 43.1963 4.71476 41.0911 5.7144 36.6088ZM21.9653 48.0366L34.4166 58.2231C35.2674 58.9192 35.3957 60.202 34.6997 61.0528C34.0036 61.9036 32.7208 62.032 31.87 61.3359L19.4187 51.1494C18.5678 50.4533 18.4395 49.1705 19.1356 48.3197C19.8317 47.4689 21.1145 47.3405 21.9653 48.0366ZM51.9594 24.0769L58.185 29.1701C59.0359 29.8662 59.1642 31.149 58.4681 31.9998C57.7721 32.8507 56.4892 32.979 55.6384 32.2829L49.4128 27.1897C48.5619 26.4936 48.4336 25.2108 49.1297 24.36C49.8258 23.5091 51.1086 23.3808 51.9594 24.0769ZM44.2256 41.9989L46.3008 43.6966C47.1516 44.3927 47.28 45.6755 46.5839 46.5263C45.8878 47.3772 44.605 47.5055 43.7542 46.8094L41.679 45.1117C40.8281 44.4156 40.6998 43.1328 41.3959 42.282C42.0919 41.4311 43.3748 41.3028 44.2256 41.9989Z" fill="#F14336"/>
</svg>
