<svg width="37" height="44" viewBox="0 0 37 44" fill="none" xmlns="http://www.w3.org/2000/svg">
<path d="M9.48868 27.9888C14.7292 32.9655 23.0119 32.7517 27.9887 27.5112C32.9654 22.2707 32.7516 13.988 27.5111 9.01122C22.2706 4.03446 13.9879 4.24827 9.01112 9.48878C4.03436 14.7293 4.24817 23.012 9.48868 27.9888Z" stroke="white" stroke-width="3.27146" stroke-linecap="round" stroke-linejoin="round"/>
<path d="M19.0967 41.6249L18.837 31.5656" stroke="white" stroke-width="3.27146" stroke-linecap="round" stroke-linejoin="round"/>
<path d="M12.4025 24.7082C9.59966 24.8628 7.33624 23.9904 5.56686 21.8036C3.0726 21.1226 1.47002 19.8344 0.305908 18.3484C0.402856 16.6961 0.83305 15.1052 1.44135 13.5572C1.48536 13.4453 1.67748 13.3607 1.81654 13.325C1.97277 13.285 2.14697 13.3145 2.31334 13.3145C13.0806 13.3144 23.8478 13.3196 34.615 13.3005C35.2048 13.2995 35.5316 13.4426 35.6732 14.0334C36.0139 15.4553 36.3865 16.8695 36.7592 18.3375C35.9016 19.8461 34.1568 21.5 30.6291 22.544C28.4228 24.8775 25.5748 25.28 22.6087 24.2512C19.8177 23.2831 17.0978 23.2025 14.3321 24.2547C13.7395 24.4802 13.0906 24.5576 12.4025 24.7082ZM15.5503 20.7375C16.5156 19.2962 16.3527 17.9661 15.0688 16.8077C13.1809 15.1042 9.67448 15.214 7.9102 17.0317C6.74201 18.2354 6.748 19.8264 7.92524 21.0291C9.86464 23.0106 13.4843 22.9083 15.5503 20.7375ZM29.6307 20.094C30.0891 19.0485 29.8936 18.0922 29.1852 17.2416C27.3407 15.0272 23.2156 15.0492 21.3944 17.2697C20.5666 18.279 20.5209 19.5753 21.2762 20.6254C23.16 23.2445 27.9694 22.9952 29.6307 20.094Z" fill="#F14336"/>
</svg>
